<mxfile host="app.diagrams.net" modified="2023-12-04T01:05:49.758Z" agent="Mozilla/5.0 (Windows NT 10.0; Win64; x64) AppleWebKit/537.36 (KHTML, like Gecko) Chrome/119.0.0.0 Safari/537.36" etag="ReH9vG8ilZ0cZcwSyG8q" version="22.1.5" type="github">
  <diagram name="Página-1" id="lRviSgMVGL4Z4l4xJwu7">
    <mxGraphModel dx="1647" dy="897" grid="0" gridSize="10" guides="1" tooltips="1" connect="1" arrows="1" fold="1" page="0" pageScale="1" pageWidth="1169" pageHeight="827" math="0" shadow="0">
      <root>
        <mxCell id="0" />
        <mxCell id="1" parent="0" />
        <mxCell id="2uhSqPjALit6IwWoEEMz-7" style="edgeStyle=orthogonalEdgeStyle;rounded=0;orthogonalLoop=1;jettySize=auto;html=1;" edge="1" parent="1" source="2uhSqPjALit6IwWoEEMz-1" target="2uhSqPjALit6IwWoEEMz-4">
          <mxGeometry relative="1" as="geometry" />
        </mxCell>
        <mxCell id="2uhSqPjALit6IwWoEEMz-1" value="&lt;font style=&quot;font-size: 36px;&quot;&gt;Ciclo de vida de desenvolvimento de software (SDLC)&lt;/font&gt;" style="rounded=1;whiteSpace=wrap;html=1;fillColor=#e1d5e7;strokeColor=#9673a6;" vertex="1" parent="1">
          <mxGeometry x="282" y="23" width="351" height="176" as="geometry" />
        </mxCell>
        <mxCell id="2uhSqPjALit6IwWoEEMz-4" value="&lt;font style=&quot;font-size: 14px;&quot;&gt;Um modelo SDLC&lt;/font&gt;" style="rounded=1;whiteSpace=wrap;html=1;fillColor=#e1d5e7;strokeColor=#9673a6;" vertex="1" parent="1">
          <mxGeometry x="397.5" y="268" width="120" height="37" as="geometry" />
        </mxCell>
        <mxCell id="2uhSqPjALit6IwWoEEMz-8" value="É uma representação abstrata e de alto nível&amp;nbsp; do processo de desenvolvimento" style="rounded=1;whiteSpace=wrap;html=1;" vertex="1" parent="1">
          <mxGeometry x="541" y="349" width="120" height="60" as="geometry" />
        </mxCell>
        <mxCell id="2uhSqPjALit6IwWoEEMz-10" value="" style="endArrow=classic;html=1;rounded=0;exitX=0.5;exitY=1;exitDx=0;exitDy=0;entryX=0.5;entryY=0;entryDx=0;entryDy=0;" edge="1" parent="1" source="2uhSqPjALit6IwWoEEMz-4" target="2uhSqPjALit6IwWoEEMz-8">
          <mxGeometry width="50" height="50" relative="1" as="geometry">
            <mxPoint x="428" y="316" as="sourcePoint" />
            <mxPoint x="478" y="266" as="targetPoint" />
          </mxGeometry>
        </mxCell>
      </root>
    </mxGraphModel>
  </diagram>
</mxfile>
